<?xml version="1.0" standalone="no"?><?xml-stylesheet type="text/css" href="https://www.processon.com/themes/default/mind/icons/icons.css" ?><!DOCTYPE svg PUBLIC "-//W3C//DTD SVG 1.1//EN" "http://www.w3.org/Graphics/SVG/1.1/DTD/svg11.dtd"><svg xmlns="http://www.w3.org/2000/svg" xlink="http://www.w3.org/1999/xlink" id="mind-svg-con" version="1.1" width="1118.0625px" height="255.015625px" style="position: absolute; left: 0px; top: 0px; width: 1118.06px; height: 255.016px; background: rgb(255, 255, 255); z-index: 999;"><defs></defs><g id="svgbackgroundid"><defs></defs><rect x="0" y="0" width="1118.0625" height="255.015625" fill="#ffffff"></rect></g><g transform="translate(-9441, -9885)" id="sdjakdjak6"><defs></defs><g class="svg-topic-con" transform="translate(0.5,0.5)"><path part="right" sub="true" id="line_3cc8b1d87659" d="M10000 9942 L10000 9987 L9505 9987 L9505 10010" stroke="#528FCC" fill="none" stroke-width="1"></path><path part="right" sub="true" id="line_b91eefd00415" d="M10000 9942 L10000 9987 L9683 9987 L9683 10010" stroke="#528FCC" fill="none" stroke-width="1"></path><path part="right" sub="true" id="line_b19efc9ad11f" d="M10000 9942 L10000 9987 L10000 9987 L10000 10010" stroke="#528FCC" fill="none" stroke-width="1"></path><path part="right" sub="true" id="line_70680f521f0c76f4" d="M10000 9942 L10000 9987 L10237 9987 L10237 10010" stroke="#528FCC" fill="none" stroke-width="1"></path><path part="right" sub="true" id="line_9b76bfcf0d03c9e1" d="M10000 9942 L10000 9987 L10415 9987 L10415 10010" stroke="#528FCC" fill="none" stroke-width="1"></path></g><g class="svg-connection-con" transform="translate(0.5,0.5)"></g><g class="svg-freesums-con" transform="translate(0.5,0.5)"></g><g class="svg-freebos-con" transform="translate(0.5,0.5)"></g></g><g id="9b76bfcf0d03c9e1"><rect x="934.921875" y="125" rx="5px" ry="5px" width="78" height="35" style="fill: transparent; stroke:#93C6E2;stroke-width:1px;"></rect><g><text text-anchor="start" align="top" anchor="start" font-size="14px" font-weight="normal" fill="rgb(13, 106, 183)" style="font-size:14px;font-family:微软雅黑;color:#0D6AB7;font-style:normal;text-align:left;font-weight:normal;font-style: normal;"><tspan x="948" y="147"><tspan>channel</tspan></tspan></text></g></g><g id="851b4eff1ee0ceb4"><rect x="860" y="200.015625" rx="1px" ry="1px" width="115" height="25" style="fill: transparent; stroke:none;"></rect><g><text text-anchor="start" align="top" anchor="start" font-size="12px" font-weight="normal" fill="rgb(13, 106, 183)" style="font-size:12px;font-family:微软雅黑;color:#0D6AB7;font-style:normal;text-align:left;font-weight:normal;font-style: normal;"><tspan x="869" y="215.16"><tspan>requests channel</tspan></tspan></text></g></g><g id="8b2089e3698ecbab"><rect x="990.0625" y="200.015625" rx="1px" ry="1px" width="98" height="25" style="fill: transparent; stroke:none;"></rect><g><text text-anchor="start" align="top" anchor="start" font-size="12px" font-weight="normal" fill="rgb(13, 106, 183)" style="font-size:12px;font-family:微软雅黑;color:#0D6AB7;font-style:normal;text-align:left;font-weight:normal;font-style: normal;"><tspan x="999" y="215.16"><tspan>event channel</tspan></tspan></text></g></g><g id="70680f521f0c76f4"><rect x="762" y="125" rx="5px" ry="5px" width="68" height="35" style="fill: transparent; stroke:#93C6E2;stroke-width:1px;"></rect><g><text text-anchor="start" align="top" anchor="start" font-size="14px" font-weight="normal" fill="rgb(13, 106, 183)" style="font-size:14px;font-family:微软雅黑;color:#0D6AB7;font-style:normal;text-align:left;font-weight:normal;font-style: normal;"><tspan x="775" y="147"><tspan>下载器</tspan></tspan></text></g></g><g id="b19efc9ad11f"><rect x="518.5" y="125" rx="5px" ry="5px" width="82" height="35" style="fill: transparent; stroke:#93C6E2;stroke-width:1px;"></rect><g><text text-anchor="start" align="top" anchor="start" font-size="14px" font-weight="normal" fill="rgb(13, 106, 183)" style="font-size:14px;font-family:微软雅黑;color:#0D6AB7;font-style:normal;text-align:left;font-weight:normal;font-style: normal;"><tspan x="532" y="147"><tspan>工作组件</tspan></tspan></text></g></g><g id="125b7d6bb324"><rect x="387" y="200.015625" rx="1px" ry="1px" width="66" height="25" style="fill: transparent; stroke:none;"></rect><g><text text-anchor="start" align="top" anchor="start" font-size="12px" font-weight="normal" fill="rgb(13, 106, 183)" style="font-size:12px;font-family:微软雅黑;color:#0D6AB7;font-style:normal;text-align:left;font-weight:normal;font-style: normal;"><tspan x="396" y="215.16"><tspan>请求队列</tspan></tspan></text></g></g><g id="7f6e7faa4fd9"><rect x="468" y="200.015625" rx="1px" ry="1px" width="66" height="25" style="fill: transparent; stroke:none;"></rect><g><text text-anchor="start" align="top" anchor="start" font-size="12px" font-weight="normal" fill="rgb(13, 106, 183)" style="font-size:12px;font-family:微软雅黑;color:#0D6AB7;font-style:normal;text-align:left;font-weight:normal;font-style: normal;"><tspan x="477" y="215.16"><tspan>去重组件</tspan></tspan></text></g></g><g id="ddf018c4551368ba"><rect x="549" y="200.015625" rx="1px" ry="1px" width="78" height="25" style="fill: transparent; stroke:none;"></rect><g><text text-anchor="start" align="top" anchor="start" font-size="12px" font-weight="normal" fill="rgb(13, 106, 183)" style="font-size:12px;font-family:微软雅黑;color:#0D6AB7;font-style:normal;text-align:left;font-weight:normal;font-style: normal;"><tspan x="558" y="215.16"><tspan>限速器组件</tspan></tspan></text></g></g><g id="e4e1f291663cadf1"><rect x="642" y="200.015625" rx="1px" ry="1px" width="90" height="25" style="fill: transparent; stroke:none;"></rect><g><text text-anchor="start" align="top" anchor="start" font-size="12px" font-weight="normal" fill="rgb(13, 106, 183)" style="font-size:12px;font-family:微软雅黑;color:#0D6AB7;font-style:normal;text-align:left;font-weight:normal;font-style: normal;"><tspan x="651" y="215.16"><tspan>事件监听组件</tspan></tspan></text></g></g><g id="b91eefd00415"><rect x="208.578125" y="125" rx="5px" ry="5px" width="68" height="35" style="fill: transparent; stroke:#93C6E2;stroke-width:1px;"></rect><g><text text-anchor="start" align="top" anchor="start" font-size="14px" font-weight="normal" fill="rgb(13, 106, 183)" style="font-size:14px;font-family:微软雅黑;color:#0D6AB7;font-style:normal;text-align:left;font-weight:normal;font-style: normal;"><tspan x="222" y="147"><tspan>中间件</tspan></tspan></text></g></g><g id="7f67e7c17eeb"><rect x="128" y="200.015625" rx="1px" ry="1px" width="78" height="25" style="fill: transparent; stroke:none;"></rect><g><text text-anchor="start" align="top" anchor="start" font-size="12px" font-weight="normal" fill="rgb(13, 106, 183)" style="font-size:12px;font-family:微软雅黑;color:#0D6AB7;font-style:normal;text-align:left;font-weight:normal;font-style: normal;"><tspan x="137" y="215.16"><tspan>下载中间件</tspan></tspan></text></g></g><g id="cdae345d7b7e"><rect x="221" y="200.015625" rx="1px" ry="1px" width="136" height="25" style="fill: transparent; stroke:none;"></rect><g><text text-anchor="start" align="top" anchor="start" font-size="12px" font-weight="normal" fill="rgb(13, 106, 183)" style="font-size:12px;font-family:微软雅黑;color:#0D6AB7;font-style:normal;text-align:left;font-weight:normal;font-style: normal;"><tspan x="230" y="215.16"><tspan>item Pipenline中间件</tspan></tspan></text></g></g><g id="3cc8b1d87659"><rect x="30" y="125" rx="5px" ry="5px" width="68" height="35" style="fill: transparent; stroke:#93C6E2;stroke-width:1px;"></rect><g><text text-anchor="start" align="top" anchor="start" font-size="14px" font-weight="normal" fill="rgb(13, 106, 183)" style="font-size:14px;font-family:微软雅黑;color:#0D6AB7;font-style:normal;text-align:left;font-weight:normal;font-style: normal;"><tspan x="43" y="147"><tspan>调度器</tspan></tspan></text></g></g><g transform="translate(860, 125)" id="sdjakdjak0"><g id="subline_9b76bfcf0d03c9e1" transform="translate(0.5, 0.5)"><path id="line_851b4eff1ee0ceb4" d="M113 37 L113 61 L57 61L57 73" p="9b76bfcf0d03c9e1" stroke="#528FCC" fill="none" stroke-linecap="round" stroke-width="1"></path><path id="line_8b2089e3698ecbab" d="M113 37 L113 61 L179 61L179 73" p="9b76bfcf0d03c9e1" stroke="#528FCC" fill="none" stroke-linecap="round" stroke-width="1"></path></g><g transform="translate(0.5,0.5)"></g><g class="svg-summary-con" transform="translate(0.5,0.5)"></g><g class="svg-boundary-con" transform="translate(0.5,0.5)"></g></g><g transform="translate(762, 125)" id="sdjakdjak1"><g id="subline_70680f521f0c76f4" transform="translate(0.5, 0.5)"></g><g transform="translate(0.5,0.5)"></g><g class="svg-summary-con" transform="translate(0.5,0.5)"></g><g class="svg-boundary-con" transform="translate(0.5,0.5)"></g></g><g transform="translate(387, 125)" id="sdjakdjak2"><g id="subline_b19efc9ad11f" transform="translate(0.5, 0.5)"><path id="line_125b7d6bb324" d="M172 37 L172 61 L33 61L33 73" p="b19efc9ad11f" stroke="#528FCC" fill="none" stroke-linecap="round" stroke-width="1"></path><path id="line_7f6e7faa4fd9" d="M172 37 L172 61 L114 61L114 73" p="b19efc9ad11f" stroke="#528FCC" fill="none" stroke-linecap="round" stroke-width="1"></path><path id="line_ddf018c4551368ba" d="M172 37 L172 61 L201 61L201 73" p="b19efc9ad11f" stroke="#528FCC" fill="none" stroke-linecap="round" stroke-width="1"></path><path id="line_e4e1f291663cadf1" d="M172 37 L172 61 L300 61L300 73" p="b19efc9ad11f" stroke="#528FCC" fill="none" stroke-linecap="round" stroke-width="1"></path></g><g transform="translate(0.5,0.5)"></g><g class="svg-summary-con" transform="translate(0.5,0.5)"></g><g class="svg-boundary-con" transform="translate(0.5,0.5)"></g></g><g transform="translate(128, 125)" id="sdjakdjak3"><g id="subline_b91eefd00415" transform="translate(0.5, 0.5)"><path id="line_7f67e7c17eeb" d="M114 37 L114 61 L39 61L39 73" p="b91eefd00415" stroke="#528FCC" fill="none" stroke-linecap="round" stroke-width="1"></path><path id="line_cdae345d7b7e" d="M114 37 L114 61 L161 61L161 73" p="b91eefd00415" stroke="#528FCC" fill="none" stroke-linecap="round" stroke-width="1"></path></g><g transform="translate(0.5,0.5)"></g><g class="svg-summary-con" transform="translate(0.5,0.5)"></g><g class="svg-boundary-con" transform="translate(0.5,0.5)"></g></g><g transform="translate(30, 125)" id="sdjakdjak4"><g id="subline_3cc8b1d87659" transform="translate(0.5, 0.5)"></g><g transform="translate(0.5,0.5)"></g><g class="svg-summary-con" transform="translate(0.5,0.5)"></g><g class="svg-boundary-con" transform="translate(0.5,0.5)"></g></g><g transform="translate(522, 30)" id="sdjakdjak5"><g id="subline_root" transform="translate(0.5, 0.5)"></g><g transform="translate(0.5,0.5)"></g><g class="svg-summary-con" transform="translate(0.5,0.5)"></g><g class="svg-boundary-con" transform="translate(0.5,0.5)"></g></g><g id="root"><rect x="522" y="30" rx="5px" ry="5px" width="74" height="55" style="fill: #ffffff; stroke:#93C6E2;stroke-width:1px;"></rect><g><text text-anchor="start" align="top" anchor="start" font-size="20px" font-weight="normal" fill="rgb(13, 106, 183)" style="font-size:20px;font-family:微软雅黑;color:#0D6AB7;font-style:normal;text-align:left;font-weight:normal;font-style: normal;"><tspan x="539" y="64"><tspan>引擎</tspan></tspan></text></g></g></svg>